# Blender v2.90.1 OBJ File: 'total_env.blend'
# www.blender.org
mtllib total_inside_floor.mtl
o inside_floor_Body025.001
v 4.948046 0.000000 10.873380
v -15.076950 0.000000 0.455000
v -14.291949 0.000000 -1.085000
v -10.747880 0.000000 6.918377
v -7.110252 0.000000 6.918377
v -6.148345 0.000000 6.918377
v -5.293055 0.000000 7.638377
v -14.291949 0.000000 -3.126623
v 4.948046 0.000000 -3.126623
v -15.076950 0.000000 6.108377
v -14.251949 0.000000 6.918377
v -12.287880 0.000000 6.918377
v -15.076950 0.000000 3.656084
vt -1.225409 1.016896
vt -1.348785 0.808382
vt -0.668402 -0.066755
vt -0.096691 -0.066755
vt 0.054488 -0.066755
vt -1.225409 1.293331
vt 1.798463 1.293331
vt 0.188911 -0.164242
vt 1.798463 -0.602259
vt -0.910438 -0.066755
vt -1.348785 0.042919
vt -1.219122 -0.066755
vt -1.348785 0.374957
vn 0.0000 1.0000 0.0000
usemtl None
s off
f 3/1/1 2/2/1 4/3/1
f 3/1/1 4/3/1 5/4/1
f 6/5/1 3/1/1 5/4/1
f 8/6/1 3/1/1 6/5/1
f 9/7/1 6/5/1 7/8/1
f 9/7/1 8/6/1 6/5/1
f 9/7/1 7/8/1 1/9/1
f 12/10/1 10/11/1 11/12/1
f 13/13/1 10/11/1 12/10/1
f 4/3/1 13/13/1 12/10/1
f 2/2/1 13/13/1 4/3/1
