# Blender v2.90.1 OBJ File: 'total_env.blend'
# www.blender.org
mtllib total_dark_blue.mtl
o dark_blue_Body026.001
v -4.733262 0.600000 10.207190
v -4.873706 0.600000 9.419615
v -4.873706 2.370000 9.419615
v -4.841553 3.360000 10.226500
v -4.829677 3.360000 10.293099
v -4.988142 3.360000 9.404469
v -4.981997 3.360000 9.438927
v -4.841553 0.600000 10.226500
v -4.981997 0.600000 9.438927
v -4.981997 2.370000 9.438927
v -4.829677 0.050000 10.293099
v -4.841553 0.490000 10.226500
v -4.841553 0.110000 10.226500
v -4.841553 0.600000 10.226500
v -4.988142 0.050000 9.404469
v -4.981997 0.110000 9.438927
v -4.981997 0.490000 9.438927
v -4.981997 0.600000 9.438927
v -4.841553 2.770000 10.226500
v -4.981997 2.370000 9.438927
v -4.841553 2.370000 10.226500
v -4.841553 3.330000 10.226500
v -4.981997 2.770000 9.438927
v -4.981997 3.330000 9.438927
v -12.114880 5.000000 6.938377
v -11.541730 5.000000 7.477903
v -11.494040 5.000000 7.477903
v -11.446509 5.000000 7.474116
v -11.399429 5.000000 7.466567
v -12.108230 5.000000 6.985594
v -11.353089 5.000000 7.455303
v -12.097850 5.000000 7.032135
v -11.307799 5.000000 7.440395
v -12.083810 5.000000 7.077704
v -11.263830 5.000000 7.421938
v -12.066190 5.000000 7.122014
v -11.221470 5.000000 7.400047
v -12.045110 5.000000 7.164786
v -11.180980 5.000000 7.374862
v -12.020710 5.000000 7.205749
v -11.142620 5.000000 7.346541
v -11.993119 5.000000 7.244644
v -11.106629 5.000000 7.315262
v -11.962530 5.000000 7.281225
v -11.073239 5.000000 7.281225
v -11.929140 5.000000 7.315262
v -11.042649 5.000000 7.244644
v -11.893149 5.000000 7.346541
v -11.015070 5.000000 7.205749
v -11.854790 5.000000 7.374862
v -10.990660 5.000000 7.164786
v -11.814300 5.000000 7.400047
v -10.969580 5.000000 7.122014
v -11.771939 5.000000 7.421938
v -10.951960 5.000000 7.077704
v -11.727970 5.000000 7.440395
v -10.937920 5.000000 7.032135
v -11.682680 5.000000 7.455303
v -10.927540 5.000000 6.985594
v -11.636340 5.000000 7.466567
v -10.920890 5.000000 6.938377
v -11.589260 5.000000 7.474116
v -14.394660 3.360000 6.868377
v -14.334660 3.360000 6.868377
v -13.654659 3.360000 6.868377
v -13.594660 3.360000 6.868377
v -11.917430 5.000000 6.485995
v -11.948810 5.000000 6.520739
v -11.883260 5.000000 6.453993
v -11.846530 5.000000 6.424957
v -11.766470 5.000000 6.376573
v -11.807509 5.000000 6.399090
v -11.977180 5.000000 6.557983
v -12.024099 5.000000 6.638913
v -12.002330 5.000000 6.597466
v -11.679460 5.000000 6.342193
v -11.723680 5.000000 6.357563
v -12.042339 5.000000 6.682033
v -12.056900 5.000000 6.726526
v -11.634109 5.000000 6.330570
v -12.067699 5.000000 6.772080
v -12.074659 5.000000 6.818377
v -11.541289 5.000000 6.318866
v -11.587950 5.000000 6.322777
v -11.494480 5.000000 6.318866
v -11.447820 5.000000 6.322777
v -11.356310 5.000000 6.342193
v -11.401660 5.000000 6.330570
v -11.269300 5.000000 6.376573
v -11.312090 5.000000 6.357563
v -11.189240 5.000000 6.424957
v -11.228260 5.000000 6.399090
v -11.152510 5.000000 6.453993
v -11.118340 5.000000 6.485995
v -11.058590 5.000000 6.557983
v -11.086960 5.000000 6.520739
v -11.033440 5.000000 6.597466
v -10.978869 5.000000 6.726526
v -11.011670 5.000000 6.638913
v -10.993430 5.000000 6.682033
v -10.961110 5.000000 6.818377
v -10.968070 5.000000 6.772080
v -10.900889 3.360000 6.868377
v -10.811110 3.360000 6.868377
v -10.131110 3.360000 6.868377
v -10.071110 3.360000 6.868377
v -10.036110 3.360000 6.868377
v -10.900889 0.060000 6.868377
v -13.594660 0.060000 6.868377
v -13.654659 3.330000 6.868377
v -13.654659 2.770000 6.868377
v -13.654659 2.390000 6.868377
v -13.634660 2.390000 6.868377
v -13.634660 0.100000 6.868377
v -13.654659 0.060000 6.868377
v -13.654659 0.100000 6.868377
v -14.334660 3.330000 6.868377
v -14.334660 2.770000 6.868377
v -14.354660 2.390000 6.868377
v -14.334660 2.390000 6.868377
v -14.334660 0.060000 6.868377
v -14.334660 0.100000 6.868377
v -14.354660 0.100000 6.868377
v -14.394660 0.060000 6.868377
v -14.334660 3.330000 6.818377
v -14.334660 2.770000 6.818377
v -13.654659 3.330000 6.818377
v -13.654659 2.770000 6.818377
v -10.811110 3.330000 6.818377
v -10.811110 2.770000 6.818377
v -10.131110 3.330000 6.818377
v -10.131110 2.770000 6.818377
v -10.071110 0.060000 6.868377
v -10.036110 0.060000 6.868377
v -10.131110 3.330000 6.868377
v -10.131110 2.770000 6.868377
v -10.131110 2.390000 6.868377
v -10.111110 2.390000 6.868377
v -10.111110 0.100000 6.868377
v -10.131110 0.060000 6.868377
v -10.131110 0.100000 6.868377
v -10.811110 3.330000 6.868377
v -10.811110 2.770000 6.868377
v -10.831110 2.390000 6.868377
v -10.811110 2.390000 6.868377
v -10.811110 0.060000 6.868377
v -10.811110 0.100000 6.868377
v -10.831110 0.100000 6.868377
v -13.634660 0.100000 6.888377
v -14.354660 0.100000 6.888377
v -13.634660 2.390000 6.888377
v -14.354660 2.390000 6.888377
v -10.111110 0.100000 6.888377
v -10.831110 0.100000 6.888377
v -10.111110 2.390000 6.888377
v -10.831110 2.390000 6.888377
v -14.334660 2.370000 6.808377
v -13.654659 2.370000 6.808377
v -13.654659 0.600000 6.808377
v -14.334660 0.600000 6.808377
v -10.131110 0.600000 6.808377
v -10.811110 0.600000 6.808377
v -10.131110 2.370000 6.808377
v -10.811110 2.370000 6.808377
v -13.654659 2.370000 6.888377
v -14.334660 2.370000 6.888377
v -13.654659 0.600000 6.888377
v -13.654659 0.120000 6.888377
v -13.654659 0.490000 6.888377
v -14.334660 0.600000 6.888377
v -14.334660 0.490000 6.888377
v -14.334660 0.120000 6.888377
v -10.131110 2.370000 6.888377
v -10.811110 2.370000 6.888377
v -10.131110 0.600000 6.888377
v -10.131110 0.120000 6.888377
v -10.131110 0.490000 6.888377
v -10.811110 0.600000 6.888377
v -10.811110 0.490000 6.888377
v -10.811110 0.120000 6.888377
v -13.654659 2.370000 6.818377
v -14.334660 2.370000 6.818377
v -14.334660 0.600000 6.818377
v -13.654659 0.600000 6.818377
v -10.131110 0.600000 6.818377
v -10.131110 2.370000 6.818377
v -10.811110 0.600000 6.818377
v -10.811110 2.370000 6.818377
v -14.334660 0.600000 6.868377
v -14.334660 2.370000 6.868377
v -13.654659 0.600000 6.868377
v -13.654659 2.370000 6.868377
v -14.334660 0.120000 6.868377
v -14.334660 0.490000 6.868377
v -13.654659 0.120000 6.868377
v -13.654659 0.490000 6.868377
v -10.811110 0.600000 6.868377
v -10.811110 2.370000 6.868377
v -10.131110 0.600000 6.868377
v -10.131110 2.370000 6.868377
v -10.811110 0.120000 6.868377
v -10.811110 0.490000 6.868377
v -10.131110 0.120000 6.868377
v -10.131110 0.490000 6.868377
v -14.334660 0.490000 6.858377
v -14.334660 0.120000 6.858377
v -13.654659 0.120000 6.858377
v -13.654659 0.490000 6.858377
v -10.811110 0.490000 6.858377
v -10.811110 0.120000 6.858377
v -10.131110 0.120000 6.858377
v -10.131110 0.490000 6.858377
vt 0.000000 0.000000
vt 0.000000 0.000000
vt 0.000000 0.000000
vt 0.000000 0.000000
vt 0.000000 0.000000
vt 0.000000 0.000000
vt 0.000000 0.000000
vt 0.000000 0.000000
vt 0.000000 0.000000
vt 0.000000 0.000000
vt 0.000000 0.000000
vt 0.000000 0.000000
vt 0.000000 0.000000
vt 0.000000 0.000000
vt 0.000000 0.000000
vt 0.000000 0.000000
vt 0.000000 0.000000
vt 0.000000 0.000000
vt 0.000000 0.000000
vt 0.000000 0.000000
vt 0.000000 0.000000
vt 0.000000 0.000000
vt 0.000000 0.000000
vt 0.000000 0.000000
vt 0.000000 0.000000
vt 0.000000 0.000000
vt 0.000000 0.000000
vt 0.000000 0.000000
vt 0.000000 0.000000
vt 0.000000 0.000000
vt 0.000000 0.000000
vt 0.000000 0.000000
vt 0.000000 0.000000
vt 0.000000 0.000000
vt 0.000000 0.000000
vt 0.000000 0.000000
vt 0.000000 0.000000
vt 0.000000 0.000000
vt 0.000000 0.000000
vt 0.000000 0.000000
vt 0.000000 0.000000
vt 0.000000 0.000000
vt 0.000000 0.000000
vt 0.000000 0.000000
vt 0.000000 0.000000
vt 0.000000 0.000000
vt 0.000000 0.000000
vt 0.000000 0.000000
vt 0.000000 0.000000
vt 0.000000 0.000000
vt 0.000000 0.000000
vt 0.000000 0.000000
vt 0.000000 0.000000
vt 0.000000 0.000000
vt 0.000000 0.000000
vt 0.000000 0.000000
vt 0.000000 0.000000
vt 0.000000 0.000000
vt 0.000000 0.000000
vt 0.000000 0.000000
vt 0.000000 0.000000
vt 0.000000 0.000000
vt 0.000000 0.000000
vt 0.000000 0.000000
vt 0.000000 0.000000
vt 0.000000 0.000000
vt 0.000000 0.000000
vt 0.000000 0.000000
vt 0.000000 0.000000
vt 0.000000 0.000000
vt 0.000000 0.000000
vt 0.000000 0.000000
vt 0.000000 0.000000
vt 0.000000 0.000000
vt 0.000000 0.000000
vt 0.000000 0.000000
vt 0.000000 0.000000
vt 0.000000 0.000000
vt 0.000000 0.000000
vt 0.000000 0.000000
vt 0.000000 0.000000
vt 0.000000 0.000000
vt 0.000000 0.000000
vt 0.000000 0.000000
vt 0.000000 0.000000
vt 0.000000 0.000000
vt 0.000000 0.000000
vt 0.000000 0.000000
vt 0.000000 0.000000
vt 0.000000 0.000000
vt 0.000000 0.000000
vt 0.000000 0.000000
vt 0.000000 0.000000
vt 0.000000 0.000000
vt 0.000000 0.000000
vt 0.000000 0.000000
vt 0.000000 0.000000
vt 0.000000 0.000000
vt 0.000000 0.000000
vt 0.000000 0.000000
vt 0.000000 0.000000
vt 0.000000 0.000000
vt 0.000000 0.000000
vt 0.000000 0.000000
vt 0.000000 0.000000
vt 0.000000 0.000000
vt 0.000000 0.000000
vt 0.000000 0.000000
vt 0.000000 0.000000
vt 0.000000 0.000000
vt 0.000000 0.000000
vt 0.000000 0.000000
vt 0.000000 0.000000
vt 0.000000 0.000000
vt 0.000000 0.000000
vt 0.000000 0.000000
vt 0.000000 0.000000
vt 0.000000 0.000000
vt 0.000000 0.000000
vt 0.000000 0.000000
vt 0.000000 0.000000
vt 0.000000 0.000000
vt 0.000000 0.000000
vt 0.000000 0.000000
vt 0.000000 0.000000
vt 0.000000 0.000000
vt 0.000000 0.000000
vt 0.000000 0.000000
vt 0.000000 0.000000
vt 0.000000 0.000000
vt 0.000000 0.000000
vt 0.000000 0.000000
vt 0.000000 0.000000
vt 0.000000 0.000000
vt 0.000000 0.000000
vt 0.000000 0.000000
vt 0.000000 0.000000
vt 0.000000 0.000000
vt 0.000000 0.000000
vt 0.000000 0.000000
vt 0.000000 0.000000
vt 0.000000 0.000000
vt 0.000000 0.000000
vt 0.000000 0.000000
vt 0.000000 0.000000
vt 0.000000 0.000000
vt 0.000000 0.000000
vt 0.000000 0.000000
vt 0.000000 0.000000
vt 0.000000 0.000000
vt 0.000000 0.000000
vt 0.000000 0.000000
vt 0.000000 0.000000
vt 0.000000 0.000000
vt 0.000000 0.000000
vt 0.000000 0.000000
vt 0.000000 0.000000
vt 0.000000 0.000000
vt 0.000000 0.000000
vt 0.000000 0.000000
vt 0.000000 0.000000
vt 0.000000 0.000000
vt 0.000000 0.000000
vt 0.000000 0.000000
vt 0.000000 0.000000
vt 0.000000 0.000000
vt 0.000000 0.000000
vt 0.000000 0.000000
vt 0.000000 0.000000
vt 0.000000 0.000000
vt 0.000000 0.000000
vt 0.000000 0.000000
vt 0.000000 0.000000
vt 0.000000 0.000000
vt 0.000000 0.000000
vt 0.000000 0.000000
vt 0.000000 0.000000
vt 0.000000 0.000000
vt 0.000000 0.000000
vt 0.000000 0.000000
vt 0.000000 0.000000
vt 0.000000 0.000000
vt 0.000000 0.000000
vt 0.000000 0.000000
vt 0.000000 0.000000
vt 0.000000 0.000000
vt 0.000000 0.000000
vt 0.000000 0.000000
vt 0.000000 0.000000
vt 0.000000 0.000000
vt 0.000000 0.000000
vt 0.000000 0.000000
vt 0.000000 0.000000
vt 0.000000 0.000000
vt 0.000000 0.000000
vt 0.000000 0.000000
vt 0.000000 0.000000
vt 0.000000 0.000000
vt 0.000000 0.000000
vt 0.000000 0.000000
vt 0.000000 0.000000
vt 0.000000 0.000000
vt 0.000000 0.000000
vt 0.000000 0.000000
vt 0.000000 0.000000
vt 0.000000 0.000000
vt 0.000000 0.000000
vt 0.000000 0.000000
vt 0.000000 0.000000
vt 0.000000 0.000000
vt 0.000000 0.000000
vt 0.000000 0.000000
vn 0.0000 1.0000 -0.0000
vn 0.1756 0.0000 0.9845
vn -0.9845 0.0000 0.1755
vn -0.9845 0.0000 0.1756
vn 0.0000 0.0000 1.0000
vn -1.0000 0.0000 0.0000
vn 0.0000 -1.0000 0.0000
vn 1.0000 0.0000 0.0000
vn -0.0002 0.0000 1.0000
usemtl None
s off
f 2/1/1 8/2/1 1/3/1
f 9/4/1 8/2/1 2/1/1
f 10/5/2 2/1/2 3/6/2
f 10/5/2 9/4/2 2/1/2
f 11/7/3 12/8/3 13/9/3
f 11/7/4 14/10/4 12/8/4
f 13/9/4 15/11/4 11/7/4
f 13/9/4 16/12/4 15/11/4
f 14/10/4 17/13/4 12/8/4
f 16/12/4 17/13/4 15/11/4
f 14/10/4 18/14/4 17/13/4
f 5/15/3 22/16/3 19/17/3
f 5/15/4 4/18/4 22/16/4
f 22/16/4 7/19/4 24/20/4
f 4/18/4 7/19/4 22/16/4
f 24/20/4 6/21/4 23/22/4
f 7/19/4 6/21/4 24/20/4
f 6/21/4 15/11/4 18/14/4
f 6/21/4 18/14/4 20/23/4
f 6/21/4 20/23/4 23/22/4
f 18/14/3 15/11/3 17/13/3
f 11/7/4 5/15/4 19/17/4
f 11/7/3 19/17/3 21/24/3
f 11/7/4 21/24/4 14/10/4
f 67/25/1 68/26/1 69/27/1
f 68/26/1 70/28/1 69/27/1
f 70/28/1 71/29/1 72/30/1
f 68/26/1 71/29/1 70/28/1
f 73/31/1 74/32/1 68/26/1
f 75/33/1 74/32/1 73/31/1
f 71/29/1 76/34/1 77/35/1
f 78/36/1 79/37/1 74/32/1
f 74/32/1 79/37/1 68/26/1
f 68/26/1 80/38/1 71/29/1
f 71/29/1 80/38/1 76/34/1
f 81/39/1 82/40/1 79/37/1
f 80/38/1 83/41/1 84/42/1
f 80/38/1 85/43/1 83/41/1
f 80/38/1 86/44/1 85/43/1
f 68/26/1 86/44/1 80/38/1
f 25/45/1 30/46/1 82/40/1
f 30/46/1 32/47/1 82/40/1
f 86/44/1 87/48/1 88/49/1
f 68/26/1 87/48/1 86/44/1
f 32/47/1 34/50/1 82/40/1
f 34/50/1 36/51/1 82/40/1
f 68/26/1 89/52/1 87/48/1
f 87/48/1 89/52/1 90/53/1
f 36/51/1 38/54/1 82/40/1
f 38/54/1 40/55/1 82/40/1
f 89/52/1 91/56/1 92/57/1
f 40/55/1 42/58/1 82/40/1
f 89/52/1 93/59/1 91/56/1
f 42/58/1 44/60/1 82/40/1
f 44/60/1 46/61/1 82/40/1
f 46/61/1 48/62/1 82/40/1
f 94/63/1 95/64/1 96/65/1
f 48/62/1 50/66/1 82/40/1
f 94/63/1 97/67/1 95/64/1
f 93/59/1 97/67/1 94/63/1
f 50/66/1 52/68/1 82/40/1
f 52/68/1 54/69/1 82/40/1
f 54/69/1 56/70/1 82/40/1
f 68/26/1 98/71/1 89/52/1
f 93/59/1 98/71/1 97/67/1
f 89/52/1 98/71/1 93/59/1
f 99/72/1 98/71/1 100/73/1
f 97/67/1 98/71/1 99/72/1
f 79/37/1 98/71/1 68/26/1
f 56/70/1 58/74/1 82/40/1
f 58/74/1 60/75/1 82/40/1
f 98/71/1 101/76/1 102/77/1
f 79/37/1 101/76/1 98/71/1
f 82/40/1 101/76/1 79/37/1
f 60/75/1 62/78/1 82/40/1
f 62/78/1 26/79/1 82/40/1
f 82/40/1 27/80/1 101/76/1
f 26/79/1 27/80/1 82/40/1
f 27/80/1 28/81/1 101/76/1
f 101/76/1 59/82/1 61/83/1
f 28/81/1 29/84/1 101/76/1
f 101/76/1 57/85/1 59/82/1
f 29/84/1 31/86/1 101/76/1
f 101/76/1 55/87/1 57/85/1
f 31/86/1 33/88/1 101/76/1
f 101/76/1 53/89/1 55/87/1
f 33/88/1 35/90/1 101/76/1
f 101/76/1 51/91/1 53/89/1
f 35/90/1 37/92/1 101/76/1
f 101/76/1 49/93/1 51/91/1
f 37/92/1 39/94/1 101/76/1
f 101/76/1 47/95/1 49/93/1
f 39/94/1 41/96/1 101/76/1
f 101/76/1 45/97/1 47/95/1
f 41/96/1 43/98/1 101/76/1
f 101/76/1 43/98/1 45/97/1
f 110/99/5 66/100/5 65/101/5
f 111/102/5 66/100/5 110/99/5
f 112/103/5 113/104/5 111/102/5
f 114/105/5 109/106/5 113/104/5
f 115/107/5 114/105/5 116/108/5
f 115/107/5 109/106/5 114/105/5
f 109/106/5 66/100/5 113/104/5
f 113/104/5 66/100/5 111/102/5
f 64/109/5 110/99/5 65/101/5
f 117/110/5 110/99/5 64/109/5
f 63/111/5 117/110/5 64/109/5
f 118/112/5 117/110/5 63/111/5
f 119/113/5 120/114/5 118/112/5
f 121/115/5 122/116/5 123/117/5
f 124/118/5 123/117/5 119/113/5
f 124/118/5 121/115/5 123/117/5
f 63/111/5 124/118/5 119/113/5
f 63/111/5 119/113/5 118/112/5
f 133/119/5 107/120/5 106/121/5
f 133/119/5 134/122/5 107/120/5
f 135/123/5 106/121/5 105/124/5
f 136/125/5 106/121/5 135/123/5
f 137/126/5 138/127/5 136/125/5
f 139/128/5 133/119/5 138/127/5
f 140/129/5 139/128/5 141/130/5
f 140/129/5 133/119/5 139/128/5
f 133/119/5 106/121/5 138/127/5
f 138/127/5 106/121/5 136/125/5
f 104/131/5 135/123/5 105/124/5
f 142/132/5 135/123/5 104/131/5
f 103/133/5 142/132/5 104/131/5
f 143/134/5 142/132/5 103/133/5
f 144/135/5 145/136/5 143/134/5
f 146/137/5 147/138/5 148/139/5
f 108/140/5 148/139/5 144/135/5
f 108/140/5 146/137/5 148/139/5
f 103/133/5 108/140/5 144/135/5
f 103/133/5 144/135/5 143/134/5
f 121/115/5 116/108/5 122/116/5
f 121/115/5 115/107/5 116/108/5
f 120/114/1 119/113/1 152/141/1
f 112/103/1 152/141/1 151/142/1
f 112/103/1 120/114/1 152/141/1
f 113/104/1 112/103/1 151/142/1
f 110/99/6 128/143/6 111/102/6
f 127/144/6 128/143/6 110/99/6
f 117/110/7 127/144/7 110/99/7
f 125/145/7 127/144/7 117/110/7
f 126/146/8 117/110/8 118/112/8
f 126/146/8 125/145/8 117/110/8
f 130/147/8 142/132/8 143/134/8
f 130/147/8 129/148/8 142/132/8
f 129/148/7 135/123/7 142/132/7
f 129/148/7 131/149/7 135/123/7
f 131/149/6 136/125/6 135/123/6
f 131/149/6 132/150/6 136/125/6
f 146/137/5 141/130/5 147/138/5
f 146/137/5 140/129/5 141/130/5
f 139/128/8 138/127/8 155/151/8
f 139/128/8 155/151/8 153/152/8
f 145/136/1 144/135/1 156/153/1
f 155/151/1 145/136/1 156/153/1
f 137/126/1 145/136/1 155/151/1
f 138/127/1 137/126/1 155/151/1
f 151/142/5 152/141/5 165/154/5
f 152/141/5 166/155/5 165/154/5
f 165/154/5 167/156/5 151/142/5
f 168/157/5 149/158/5 169/159/5
f 169/159/5 149/158/5 167/156/5
f 152/141/5 170/160/5 166/155/5
f 167/156/5 170/160/5 169/159/5
f 170/160/5 171/161/5 169/159/5
f 168/157/5 172/162/5 149/158/5
f 171/161/5 150/163/5 172/162/5
f 172/162/5 150/163/5 149/158/5
f 149/158/5 151/142/5 167/156/5
f 152/141/5 150/163/5 170/160/5
f 170/160/9 150/163/9 171/161/9
f 155/151/5 156/153/5 173/164/5
f 156/153/5 174/165/5 173/164/5
f 173/164/5 175/166/5 155/151/5
f 176/167/5 153/152/5 177/168/5
f 177/168/5 153/152/5 175/166/5
f 156/153/5 178/169/5 174/165/5
f 175/166/5 178/169/5 177/168/5
f 178/169/5 179/170/5 177/168/5
f 176/167/5 180/171/5 153/152/5
f 179/170/5 154/172/5 180/171/5
f 180/171/5 154/172/5 153/152/5
f 153/152/5 155/151/5 175/166/5
f 156/153/5 154/172/5 178/169/5
f 178/169/9 154/172/9 179/170/9
f 181/173/7 157/174/7 158/175/7
f 181/173/7 182/176/7 157/174/7
f 182/176/8 183/177/8 157/174/8
f 157/174/8 183/177/8 160/178/8
f 183/177/1 159/179/1 160/178/1
f 183/177/1 184/180/1 159/179/1
f 184/180/6 181/173/6 159/179/6
f 187/181/1 161/182/1 162/183/1
f 188/184/8 187/181/8 164/185/8
f 164/185/8 187/181/8 162/183/8
f 186/186/7 164/185/7 163/187/7
f 186/186/7 188/184/7 164/185/7
f 189/188/8 190/189/8 170/160/8
f 170/160/8 190/189/8 166/155/8
f 191/190/1 170/160/1 167/156/1
f 191/190/1 189/188/1 170/160/1
f 192/191/6 191/190/6 165/154/6
f 165/154/6 191/190/6 167/156/6
f 190/189/7 165/154/7 166/155/7
f 190/189/7 192/191/7 165/154/7
f 193/192/8 194/193/8 172/162/8
f 172/162/8 194/193/8 171/161/8
f 195/194/1 172/162/1 168/157/1
f 195/194/1 193/192/1 172/162/1
f 196/195/6 195/194/6 169/159/6
f 169/159/6 195/194/6 168/157/6
f 197/196/8 198/197/8 178/169/8
f 178/169/8 198/197/8 174/165/8
f 199/198/1 178/169/1 175/166/1
f 199/198/1 197/196/1 178/169/1
f 198/197/7 173/164/7 174/165/7
f 198/197/7 200/199/7 173/164/7
f 201/200/8 202/201/8 180/171/8
f 180/171/8 202/201/8 179/170/8
f 203/202/1 180/171/1 176/167/1
f 203/202/1 201/200/1 180/171/1
f 204/203/6 203/202/6 177/168/6
f 177/168/6 203/202/6 176/167/6
f 202/201/7 177/168/7 179/170/7
f 202/201/7 204/203/7 177/168/7
f 190/189/7 181/173/7 192/191/7
f 182/176/7 181/173/7 190/189/7
f 189/188/8 182/176/8 190/189/8
f 183/177/8 182/176/8 189/188/8
f 191/190/1 183/177/1 189/188/1
f 184/180/1 183/177/1 191/190/1
f 192/191/6 184/180/6 191/190/6
f 181/173/6 184/180/6 192/191/6
f 185/204/1 197/196/1 199/198/1
f 185/204/1 187/181/1 197/196/1
f 187/181/8 198/197/8 197/196/8
f 187/181/8 188/184/8 198/197/8
f 188/184/7 200/199/7 198/197/7
f 188/184/7 186/186/7 200/199/7
f 205/205/8 193/192/8 206/206/8
f 194/193/8 193/192/8 205/205/8
f 206/206/1 195/194/1 207/207/1
f 193/192/1 195/194/1 206/206/1
f 207/207/6 196/195/6 208/208/6
f 195/194/6 196/195/6 207/207/6
f 209/209/8 201/200/8 210/210/8
f 202/201/8 201/200/8 209/209/8
f 210/210/1 203/202/1 211/211/1
f 201/200/1 203/202/1 210/210/1
f 211/211/6 204/203/6 212/212/6
f 203/202/6 204/203/6 211/211/6
f 212/212/7 202/201/7 209/209/7
f 204/203/7 202/201/7 212/212/7
