# Blender v2.90.1 OBJ File: 'total_env.blend'
# www.blender.org
mtllib total_white_concrete.mtl
o white_concrete_Body032.001
v -26.871019 3.400000 10.334100
v -26.297979 3.370000 7.084236
v -26.122009 2.810000 6.086250
v -26.122009 3.370000 6.086250
v -26.122009 2.410000 6.086250
v -25.792068 2.410000 4.215116
v -25.792068 2.810000 4.215116
v -25.427410 3.400000 2.147019
v -25.792068 3.370000 4.215116
v -25.792068 0.000000 4.215116
v -25.427410 0.000000 2.147019
v -26.871019 0.000000 10.334100
v -26.122009 0.000000 6.086250
v -26.297979 0.050000 7.084236
v -26.979349 0.000000 10.315001
v -26.230330 0.000000 6.067149
v -26.230330 2.410000 6.067149
v -25.900400 2.410000 4.196014
v -25.900400 0.000000 4.196014
v -25.539110 0.000000 2.147019
v -30.917379 0.000000 -0.370000
v -25.963530 0.000000 -0.260000
v -30.917379 0.000000 -0.260000
v -25.871229 0.000000 -0.370000
v -25.871229 3.400000 -0.370000
v -25.539110 3.400000 2.147019
v -26.979349 3.400000 10.315001
v -25.963530 3.400000 -0.260000
v -30.917379 3.400000 -0.370000
v -30.917379 3.400000 -0.260000
v -26.428879 2.410000 7.193160
v -26.611210 0.640000 8.227208
v -26.428879 0.640000 7.193160
v -26.824799 3.370000 9.438521
v -26.642469 3.370000 8.404473
v -26.611210 3.370000 8.227208
v -26.428879 3.370000 7.193160
v -26.428879 2.810000 7.193160
v -26.230330 3.370000 6.067149
v -25.900400 3.370000 4.196014
v -26.230330 2.810000 6.067149
v -25.900400 2.810000 4.196014
vt 0.903196 0.287576
vt 0.526007 -0.376616
vt 0.903189 -0.376620
vt 0.256592 -0.376612
vt 0.256575 -1.621920
vt 0.525991 -1.621923
vt 0.923361 -2.998320
vt 0.903172 -1.621927
vt -1.366653 -1.621903
vt -1.366670 -2.998295
vt -1.366600 2.450502
vt -1.366636 -0.376594
vt -1.332951 0.287600
vt 0.923430 2.450476
vt 5.577624 -0.070161
vt 5.503541 2.757052
vt 5.503534 -0.070159
vt 5.577624 2.757052
vt -4.248494 4.502497
vt -4.322570 2.922860
vt -4.248494 2.922860
vt -4.322570 4.502497
vt -4.100312 4.168218
vt -4.026227 2.922860
vt -4.026221 4.168219
vt -4.100309 2.922860
vt -4.396659 4.502498
vt -4.322570 2.922860
vt -4.322570 4.502498
vt -4.396657 2.922860
vt 5.525926 -4.516219
vt 4.332487 -3.801417
vt 5.487092 -4.577624
vt 4.282526 -3.856157
vt 5.470531 -0.070161
vt 3.310183 -2.545732
vt 5.525925 -0.118041
vt 3.213505 -2.543085
vt -1.366601 -4.577599
vt 0.923431 -4.577624
vt -4.195630 -1.801344
vt -1.366671 2.886349
vt -1.430559 2.922860
vt -4.266134 -1.775794
vt -4.493508 -3.376922
vt -1.392526 -4.577624
vt -1.366670 -4.510057
vt -4.577624 -3.423376
vt -4.174403 4.168218
vt -4.100317 2.922860
vt -4.100312 4.168219
vt -4.174400 2.922860
vt -2.005680 2.922860
vt -1.931605 3.289913
vt -2.005680 3.289913
vt -1.931605 2.922860
vt -2.524265 3.289913
vt -2.450178 2.922860
vt -2.450177 3.289913
vt -2.524265 2.922860
vt -4.248489 2.922861
vt -4.174403 4.168219
vt -4.248494 4.168219
vt -4.174404 2.922860
vt 0.923450 -1.750971
vt 0.923473 -4.577624
vt 1.354528 -3.188340
vt 3.213462 0.857619
vt 2.816084 -0.505849
vt 3.193266 -0.505847
vt 3.213504 -4.577612
vt 3.193294 -3.994376
vt 3.193288 -3.306288
vt 3.193287 -3.188330
vt 2.546670 -0.505850
vt 3.193282 -2.500242
vt 3.193276 -1.750958
vt 0.923431 0.857606
vt 2.546679 -1.750962
vt 2.816093 -1.750961
vt 0.923441 -0.505859
vt 2.816100 -2.500243
vt 2.546686 -2.500245
vt 1.354522 -2.500251
vt 0.923474 2.373614
vt 3.213505 2.373627
vt 3.213462 2.373627
vt 3.213462 5.577624
vt 0.923431 2.373627
vt 0.923431 5.577624
vt -4.469864 2.922862
vt -4.396660 2.922860
vt -4.469864 5.151395
vt -4.396659 5.151396
vt 5.503535 -0.070160
vt 5.503535 3.195079
vt 3.213505 -0.070161
vt 3.213505 3.195079
vn 0.9848 0.0000 0.1736
vn 0.9848 0.0000 0.1737
vn 0.9848 0.0001 0.1736
vn 0.9848 -0.0008 0.1736
vn 0.0000 -1.0000 0.0000
vn 0.1737 0.0000 -0.9848
vn -0.1736 0.0000 0.9848
vn 0.9848 0.0000 -0.1736
vn 0.0000 1.0000 -0.0000
vn 0.1736 0.0000 -0.9848
vn -0.1737 0.0000 0.9848
vn -0.9848 0.0000 -0.1737
vn -0.9848 0.0000 -0.1736
vn -0.9848 -0.0004 -0.1736
vn -0.9848 0.0010 -0.1736
vn -0.9848 -0.0010 -0.1736
vn -0.9848 0.0000 0.1736
vn 0.0000 0.0000 1.0000
vn -1.0000 0.0000 0.0000
vn 0.0000 0.0000 -1.0000
usemtl None
s off
f 2/1/1 3/2/1 4/3/1
f 5/4/2 6/5/2 3/2/2
f 3/2/2 6/5/2 7/6/2
f 7/6/1 8/7/1 9/8/1
f 6/5/1 8/7/1 7/6/1
f 10/9/1 11/10/1 6/5/1
f 6/5/1 11/10/1 8/7/1
f 12/11/1 13/12/1 14/13/1
f 8/7/3 1/14/3 9/8/3
f 9/8/4 1/14/4 4/3/4
f 2/1/1 14/13/1 3/2/1
f 3/2/1 14/13/1 5/4/1
f 5/4/1 14/13/1 13/12/1
f 15/15/5 13/16/5 12/17/5
f 16/18/5 13/16/5 15/15/5
f 17/19/6 13/20/6 16/21/6
f 5/22/6 13/20/6 17/19/6
f 6/23/5 17/24/5 18/25/5
f 6/23/5 5/26/5 17/24/5
f 10/27/7 18/28/7 19/29/7
f 10/27/7 6/30/7 18/28/7
f 19/31/5 20/32/5 10/33/5
f 20/32/5 11/34/5 10/33/5
f 21/35/5 22/36/5 23/37/5
f 20/32/5 22/36/5 11/34/5
f 21/35/5 24/38/5 22/36/5
f 22/36/5 24/38/5 11/34/5
f 11/10/8 24/39/8 8/7/8
f 8/7/8 24/39/8 25/40/8
f 26/41/9 27/42/9 1/43/9
f 8/44/9 26/41/9 1/43/9
f 28/45/9 29/46/9 30/47/9
f 28/45/9 26/41/9 8/44/9
f 25/48/9 29/46/9 28/45/9
f 25/48/9 28/45/9 8/44/9
f 9/49/5 39/50/5 40/51/5
f 9/49/5 4/52/5 39/50/5
f 39/53/10 3/54/10 41/55/10
f 4/56/6 3/54/6 39/53/6
f 7/57/11 40/58/11 42/59/11
f 7/57/11 9/60/11 40/58/11
f 41/61/9 7/62/9 42/63/9
f 3/64/9 7/62/9 41/61/9
f 16/65/12 15/66/12 32/67/12
f 26/68/13 42/69/13 40/70/13
f 27/71/14 26/68/14 34/72/14
f 34/72/15 26/68/15 35/73/15
f 35/73/12 26/68/12 36/74/12
f 26/68/13 18/75/13 42/69/13
f 36/74/16 26/68/16 37/76/16
f 37/76/12 26/68/12 39/77/12
f 39/77/12 26/68/12 40/70/12
f 26/68/13 20/78/13 18/75/13
f 42/69/13 17/79/13 41/80/13
f 18/75/13 17/79/13 42/69/13
f 20/78/13 19/81/13 18/75/13
f 41/80/12 38/82/12 39/77/12
f 17/79/12 38/82/12 41/80/12
f 17/79/12 31/83/12 38/82/12
f 16/65/12 33/84/12 17/79/12
f 17/79/12 33/84/12 31/83/12
f 16/65/13 32/67/13 33/84/13
f 22/85/17 20/78/17 28/86/17
f 28/86/17 20/78/17 26/68/17
f 23/87/18 22/88/18 30/89/18
f 30/89/18 22/88/18 28/90/18
f 21/91/19 23/92/19 29/93/19
f 29/93/19 23/92/19 30/94/19
f 24/95/20 21/96/20 25/97/20
f 25/97/20 21/96/20 29/98/20
